<svg width="20" height="20" viewBox="0 0 20 20" fill="none" xmlns="http://www.w3.org/2000/svg">
<g clip-path="url(#clip0)">
<path d="M11.1047 10.0008L19.7709 1.33445C20.0761 1.02933 20.0761 0.534647 19.7709 0.22957C19.4658 -0.0755077 18.9711 -0.0755467 18.6661 0.22957L9.99975 8.89588L1.33347 0.22957C1.02836 -0.0755467 0.533671 -0.0755467 0.228593 0.22957C-0.0764842 0.534686 -0.0765233 1.02937 0.228593 1.33445L8.89487 10.0007L0.228593 18.667C-0.0765233 18.9721 -0.0765233 19.4668 0.228593 19.7719C0.381132 19.9245 0.581093 20.0007 0.781053 20.0007C0.981014 20.0007 1.18094 19.9245 1.33351 19.7719L9.99975 11.1056L18.666 19.7719C18.8186 19.9245 19.0185 20.0007 19.2185 20.0007C19.4184 20.0007 19.6184 19.9245 19.7709 19.7719C20.0761 19.4668 20.0761 18.9721 19.7709 18.667L11.1047 10.0008Z" fill="#D8361F"/>
</g>
<defs>
<clipPath id="clip0">
<rect width="20" height="20" fill="white"/>
</clipPath>
</defs>
</svg>
