<svg width="597" height="597" viewBox="0 0 597 597" fill="none" xmlns="http://www.w3.org/2000/svg">
<rect width="597" height="597" fill="white" fill-opacity="0.5"/>
<ellipse opacity="0.5" cx="300.103" cy="471.5" rx="140" ry="18.5" fill="#A2ABB3"/>
<path d="M195.103 267.073C187.503 207.873 173.936 141.406 168.103 115.573C200.603 133.073 237.603 140.573 348.103 151.073C436.503 159.473 485.936 190.906 499.603 205.573C475.103 204.739 410.503 217.873 348.103 277.073C285.703 336.273 217.769 364.406 191.603 371.073C195.936 361.073 202.703 326.273 195.103 267.073Z" fill="#2DB151"/>
<rect x="158" y="106.746" width="8" height="367" transform="rotate(-5.35321 158 106.746)" fill="#23933F"/>
<mask id="mask0" style="mask-type:alpha" maskUnits="userSpaceOnUse" x="168" y="116" width="332" height="256">
<path d="M195.103 267.5C187.503 208.3 173.936 141.833 168.103 116C200.603 133.5 237.603 141 348.103 151.5C436.503 159.9 485.936 191.333 499.603 206C475.103 205.167 410.503 218.3 348.103 277.5C285.703 336.7 217.769 364.833 191.603 371.5C195.936 361.5 202.703 326.7 195.103 267.5Z" fill="#D0D0D0" fill-opacity="0.9"/>
</mask>
<g mask="url(#mask0)">
<path d="M380.602 208.5C328.102 278.5 285.602 344 190.102 386.5L522.602 295.5L548.602 115C501.436 117.5 412.29 166.249 380.602 208.5Z" fill="#23933F"/>
<path d="M260.102 109L120.602 90C112.602 155.833 161.802 348.5 174.602 302.5C187.402 256.5 161.602 95.5843 260.102 109Z" fill="#23933F"/>
</g>
<path fill-rule="evenodd" clip-rule="evenodd" d="M233.103 205.476V252.56C233.103 255.536 234.293 258.513 236.526 260.398C237.865 261.54 239.503 262.284 241.537 262.284H291.15C292.986 262.284 294.623 261.54 295.665 260.746C298.493 258.662 299.535 255.983 299.585 252.51C299.585 252.262 299.634 252.163 299.634 251.915V251.518C299.585 242.488 299.634 233.359 299.634 224.28C297.303 225.074 294.723 226.066 293.284 226.81C293.135 226.86 292.986 226.909 292.837 227.009V242.736C292.837 243.629 292.788 244.423 292.788 245.266C292.788 246.953 292.788 248.69 292.788 250.426C292.788 253.75 293.036 255.487 290.257 255.636C289.811 255.636 289.414 255.586 289.017 255.636C287.975 255.784 250.616 255.685 249.574 255.685C248.532 255.685 247.639 255.636 246.647 255.636C245.258 255.636 242.132 255.784 241.041 255.288C240.346 254.991 239.949 254.296 239.949 253.353C239.949 253.105 239.9 253.006 239.9 252.708C239.9 252.46 239.9 252.212 239.9 251.964C239.9 251.418 239.85 251.022 239.85 250.525L239.8 235.393C239.8 233.26 239.85 231.275 239.85 229.192V219.864C239.85 218.773 239.9 217.88 239.9 216.788V207.461C239.9 206.32 239.8 204.137 240.594 203.442C241.289 202.797 242.132 202.797 243.075 202.797C243.422 202.797 243.521 202.747 243.819 202.747C256.272 202.599 269.072 202.747 281.476 202.747C283.014 202.747 289.761 202.648 290.952 202.896C291.895 203.095 292.49 203.541 292.688 204.484C292.837 205.427 292.688 206.568 292.788 207.56C292.887 208.552 292.837 209.743 292.837 210.785C292.837 211.926 292.887 212.869 292.887 213.96V216.639C294.971 215.796 297.154 215.002 299.287 214.407L299.634 214.258V207.312C299.634 204.782 299.337 202.102 297.997 200.068C297.848 199.771 297.65 199.572 297.451 199.274C295.963 197.389 292.986 196 290.505 196H242.331C241.09 196 239.652 196.397 238.51 196.843C235.087 198.282 233.103 201.706 233.103 205.476Z" fill="#166F2B"/>
<path fill-rule="evenodd" clip-rule="evenodd" d="M269.072 232.366C268.725 232.118 267.782 231.125 267.435 230.728C266.592 229.935 265.748 229.141 264.805 228.496L264.309 228.148C264.16 228.049 263.962 227.95 263.813 227.851C263.664 227.702 263.466 227.603 263.317 227.503C261.184 226.462 259.1 225.717 256.669 225.072C254.535 224.576 252.104 223.981 249.822 224.229C249.574 224.279 249.326 224.328 249.078 224.378C249.078 225.221 249.028 225.866 249.028 226.71C249.028 227.454 248.929 228.297 248.929 229.041C248.929 230.629 248.78 232.167 248.78 233.755C248.979 233.755 248.979 233.705 249.227 233.705C252.253 233.705 253.543 233.755 256.272 234.797C257.959 235.392 259.497 236.384 260.836 237.525C260.936 237.625 260.985 237.674 261.084 237.773C261.581 238.121 262.077 238.667 262.474 239.113L262.92 239.659C264.111 241.098 265.004 242.388 265.897 244.025C266.79 245.712 267.485 247.448 268.08 249.234C268.13 249.482 268.229 249.83 268.328 250.028C268.626 249.879 269.072 249.78 269.42 249.681L272.793 248.589C273.19 248.44 273.537 248.341 273.885 248.242L276.167 247.498C276.514 247.399 277.01 247.299 277.308 247.15C277.308 247.002 277.258 246.803 277.258 246.605C277.159 245.761 277.01 244.819 277.01 243.926C277.01 243.677 276.961 243.628 276.961 243.38C276.862 240.601 277.11 238.17 278.003 235.541C278.548 233.854 279.392 232.366 280.384 230.927L281.079 229.984C281.674 229.29 282.766 228.049 283.46 227.503C284.155 226.908 284.849 226.313 285.594 225.717L286.586 225.023C287.28 224.527 287.975 224.08 288.719 223.683C289.662 223.088 291.101 222.244 292.143 221.847C292.341 221.748 292.49 221.649 292.688 221.55C292.887 221.451 293.085 221.401 293.284 221.302C295.665 220.111 301.023 218.226 303.504 217.531L306.183 216.737C306.63 216.588 307.076 216.44 307.572 216.34C307.424 216.092 306.481 212.123 306.382 211.726L305.489 208.303C305.389 207.956 305.34 207.46 305.191 207.162C304.596 207.211 299.833 208.7 299.287 208.898C296.707 209.643 294.028 210.635 291.547 211.677C291.299 211.776 291.101 211.875 290.853 211.974L288.868 212.818C288.67 212.967 288.471 213.066 288.223 213.165C287.777 213.314 287.33 213.562 286.933 213.76C285.693 214.455 284.452 215.1 283.262 215.894C281.724 216.886 280.235 217.928 278.797 219.069C278.3 219.516 277.755 219.913 277.258 220.409C277.11 220.607 276.961 220.706 276.762 220.855C275.969 221.649 275.125 222.443 274.431 223.336L273.19 224.924C271.751 226.809 270.561 228.793 269.618 230.927C269.469 231.224 269.072 232.018 269.072 232.366Z" fill="#166F2B"/>
</svg>
