<svg width="371" height="260" viewBox="0 0 371 260" fill="none" xmlns="http://www.w3.org/2000/svg">
<path d="M2.33731 135.71C2.33731 130.869 3.31119 126.639 5.25895 123.022C7.26236 119.405 10.017 116.622 13.523 114.675C17.0846 112.727 21.1471 111.753 25.7104 111.753C31.5537 111.753 36.4231 113.283 40.3186 116.344C44.2698 119.405 46.8575 123.718 48.0818 129.283H32.8893C31.6094 125.721 29.1329 123.94 25.46 123.94C22.8444 123.94 20.7576 124.97 19.1993 127.029C17.6411 129.032 16.862 131.926 16.862 135.71C16.862 139.495 17.6411 142.416 19.1993 144.475C20.7576 146.479 22.8444 147.48 25.46 147.48C29.1329 147.48 31.6094 145.7 32.8893 142.138H48.0818C46.8575 147.592 44.2698 151.877 40.3186 154.993C36.3675 158.11 31.4981 159.668 25.7104 159.668C21.1471 159.668 17.0846 158.694 13.523 156.746C10.017 154.798 7.26236 152.016 5.25895 148.399C3.31119 144.781 2.33731 140.552 2.33731 135.71ZM77.1846 159.668C72.6213 159.668 68.5032 158.694 64.8302 156.746C61.213 154.798 58.347 152.016 56.2323 148.399C54.1732 144.781 53.1437 140.552 53.1437 135.71C53.1437 130.924 54.201 126.723 56.3158 123.106C58.4305 119.433 61.3243 116.622 64.9972 114.675C68.6701 112.727 72.7882 111.753 77.3516 111.753C81.9149 111.753 86.033 112.727 89.7059 114.675C93.3788 116.622 96.2726 119.433 98.3874 123.106C100.502 126.723 101.559 130.924 101.559 135.71C101.559 140.496 100.474 144.726 98.3039 148.399C96.1892 152.016 93.2675 154.798 89.539 156.746C85.866 158.694 81.7479 159.668 77.1846 159.668ZM77.1846 147.313C79.9115 147.313 82.221 146.312 84.1131 144.308C86.0608 142.305 87.0347 139.439 87.0347 135.71C87.0347 131.982 86.0886 129.116 84.1965 127.112C82.3601 125.109 80.0784 124.107 77.3516 124.107C74.569 124.107 72.2596 125.109 70.4231 127.112C68.5866 129.06 67.6684 131.926 67.6684 135.71C67.6684 139.439 68.5588 142.305 70.3396 144.308C72.1761 146.312 74.4577 147.313 77.1846 147.313ZM137.778 111.92C143.232 111.92 147.573 113.701 150.801 117.262C154.084 120.768 155.726 125.61 155.726 131.787V159H141.535V133.707C141.535 130.591 140.728 128.17 139.114 126.445C137.5 124.719 135.33 123.857 132.603 123.857C129.876 123.857 127.706 124.719 126.092 126.445C124.478 128.17 123.671 130.591 123.671 133.707V159H109.397V112.421H123.671V118.598C125.118 116.539 127.066 114.925 129.514 113.756C131.963 112.532 134.718 111.92 137.778 111.92ZM194.291 111.92C199.745 111.92 204.086 113.701 207.313 117.262C210.597 120.768 212.238 125.61 212.238 131.787V159H198.048V133.707C198.048 130.591 197.241 128.17 195.627 126.445C194.013 124.719 191.843 123.857 189.116 123.857C186.389 123.857 184.218 124.719 182.605 126.445C180.991 128.17 180.184 130.591 180.184 133.707V159H165.91V112.421H180.184V118.598C181.631 116.539 183.579 114.925 186.027 113.756C188.476 112.532 191.23 111.92 194.291 111.92ZM266.33 134.959C266.33 136.295 266.247 137.686 266.08 139.133H233.775C233.997 142.027 234.916 144.253 236.53 145.811C238.199 147.313 240.23 148.065 242.623 148.065C246.185 148.065 248.661 146.562 250.053 143.557H265.245C264.466 146.618 263.047 149.373 260.988 151.821C258.984 154.27 256.452 156.19 253.392 157.581C250.331 158.972 246.908 159.668 243.124 159.668C238.561 159.668 234.498 158.694 230.937 156.746C227.375 154.798 224.593 152.016 222.589 148.399C220.586 144.781 219.584 140.552 219.584 135.71C219.584 130.869 220.558 126.639 222.506 123.022C224.509 119.405 227.292 116.622 230.853 114.675C234.415 112.727 238.505 111.753 243.124 111.753C247.632 111.753 251.639 112.699 255.145 114.591C258.651 116.483 261.377 119.182 263.325 122.688C265.329 126.194 266.33 130.284 266.33 134.959ZM251.722 131.203C251.722 128.754 250.887 126.806 249.218 125.359C247.548 123.913 245.461 123.189 242.957 123.189C240.564 123.189 238.533 123.885 236.863 125.276C235.25 126.667 234.248 128.643 233.858 131.203H251.722ZM271.287 135.71C271.287 130.869 272.261 126.639 274.209 123.022C276.212 119.405 278.967 116.622 282.473 114.675C286.034 112.727 290.097 111.753 294.66 111.753C300.504 111.753 305.373 113.283 309.268 116.344C313.22 119.405 315.807 123.718 317.032 129.283H301.839C300.559 125.721 298.083 123.94 294.41 123.94C291.794 123.94 289.707 124.97 288.149 127.029C286.591 129.032 285.812 131.926 285.812 135.71C285.812 139.495 286.591 142.416 288.149 144.475C289.707 146.479 291.794 147.48 294.41 147.48C298.083 147.48 300.559 145.7 301.839 142.138H317.032C315.807 147.592 313.22 151.877 309.268 154.993C305.317 158.11 300.448 159.668 294.66 159.668C290.097 159.668 286.034 158.694 282.473 156.746C278.967 154.798 276.212 152.016 274.209 148.399C272.261 144.781 271.287 140.552 271.287 135.71ZM350.893 146.896V159H343.63C338.455 159 334.42 157.748 331.526 155.244C328.632 152.684 327.186 148.538 327.186 142.806V124.274H321.509V112.421H327.186V101.068H341.46V112.421H350.809V124.274H341.46V142.973C341.46 144.364 341.794 145.366 342.462 145.978C343.129 146.59 344.242 146.896 345.801 146.896H350.893Z" fill="#05B851"/>
<path d="M19.4498 13.2282V75H5.17548V13.2282H19.4498ZM73.9669 50.9591C73.9669 52.2947 73.8834 53.6859 73.7165 55.1329H41.4115C41.6341 58.0267 42.5523 60.2527 44.1662 61.8109C45.8357 63.3134 47.8669 64.0647 50.2599 64.0647C53.8215 64.0647 56.2979 62.5622 57.6892 59.5571H72.8817C72.1026 62.6178 70.6835 65.3725 68.6245 67.8211C66.6211 70.2697 64.089 72.1897 61.0282 73.5809C57.9674 74.9722 54.5449 75.6678 50.7607 75.6678C46.1974 75.6678 42.1349 74.6939 38.5733 72.7462C35.0117 70.7984 32.2292 68.0159 30.2258 64.3986C28.2224 60.7814 27.2207 56.5519 27.2207 51.7104C27.2207 46.8688 28.1945 42.6394 30.1423 39.0221C32.1457 35.4048 34.9282 32.6223 38.4898 30.6746C42.0515 28.7268 46.1418 27.7529 50.7607 27.7529C55.2684 27.7529 59.2752 28.699 62.7812 30.5911C66.2872 32.4832 69.014 35.1822 70.9618 38.6882C72.9652 42.1942 73.9669 46.2845 73.9669 50.9591ZM59.3587 47.2027C59.3587 44.7541 58.5239 42.8063 56.8544 41.3594C55.1849 39.9125 53.098 39.1891 50.5938 39.1891C48.2008 39.1891 46.1696 39.8847 44.5001 41.2759C42.8862 42.6672 41.8845 44.6428 41.495 47.2027H59.3587ZM78.9238 51.6269C78.9238 46.841 79.8142 42.6394 81.595 39.0221C83.4314 35.4048 85.9079 32.6223 89.0243 30.6746C92.1407 28.7268 95.6188 27.7529 99.4587 27.7529C102.742 27.7529 105.608 28.4207 108.057 29.7563C110.561 31.0919 112.481 32.8449 113.816 35.0153V28.4207H128.091V75H113.816V68.4054C112.425 70.5758 110.477 72.3288 107.973 73.6644C105.525 75 102.659 75.6678 99.3752 75.6678C95.591 75.6678 92.1407 74.6939 89.0243 72.7462C85.9079 70.7428 83.4314 67.9324 81.595 64.3151C79.8142 60.6422 78.9238 56.4128 78.9238 51.6269ZM113.816 51.7104C113.816 48.1487 112.815 45.3384 110.811 43.2793C108.864 41.2203 106.471 40.1908 103.632 40.1908C100.794 40.1908 98.3735 41.2203 96.3701 43.2793C94.4224 45.2828 93.4485 48.0653 93.4485 51.6269C93.4485 55.1885 94.4224 58.0267 96.3701 60.1414C98.3735 62.2004 100.794 63.23 103.632 63.23C106.471 63.23 108.864 62.2004 110.811 60.1414C112.815 58.0823 113.816 55.272 113.816 51.7104ZM152.957 36.1839C154.626 33.624 156.713 31.6206 159.217 30.1737C161.721 28.6712 164.504 27.9199 167.565 27.9199V43.0289H163.641C160.08 43.0289 157.409 43.808 155.628 45.3662C153.847 46.8688 152.957 49.54 152.957 53.3799V75H138.682V28.4207H152.957V36.1839ZM203.034 27.9199C208.488 27.9199 212.828 29.7007 216.056 33.2623C219.339 36.7683 220.981 41.6098 220.981 47.787V75H206.79V49.707C206.79 46.5905 205.983 44.1697 204.369 42.4446C202.756 40.7194 200.585 39.8569 197.858 39.8569C195.131 39.8569 192.961 40.7194 191.347 42.4446C189.733 44.1697 188.926 46.5905 188.926 49.707V75H174.652V28.4207H188.926V34.5979C190.373 32.5388 192.321 30.925 194.77 29.7563C197.218 28.532 199.973 27.9199 203.034 27.9199Z" fill="#05B851"/>
<path d="M24.1244 243.668C20.0619 243.668 16.4447 242.972 13.2726 241.581C10.1005 240.19 7.59626 238.298 5.7598 235.905C3.92334 233.456 2.89381 230.729 2.67121 227.724H16.7786C16.9455 229.338 17.6968 230.646 19.0324 231.647C20.368 232.649 22.0097 233.15 23.9574 233.15C25.7382 233.15 27.1017 232.816 28.0477 232.148C29.0494 231.425 29.5503 230.507 29.5503 229.394C29.5503 228.058 28.8547 227.084 27.4634 226.472C26.0722 225.804 23.8183 225.081 20.7019 224.302C17.3629 223.522 14.5804 222.715 12.3544 221.881C10.1283 220.99 8.20841 219.627 6.59456 217.79C4.9807 215.898 4.17377 213.366 4.17377 210.194C4.17377 207.523 4.89722 205.102 6.34413 202.932C7.84669 200.706 10.017 198.953 12.8552 197.673C15.749 196.393 19.1715 195.753 23.1227 195.753C28.966 195.753 33.5571 197.2 36.8961 200.094C40.2908 202.987 42.2386 206.827 42.7394 211.613H29.5503C29.3277 209.999 28.6042 208.719 27.3799 207.773C26.2113 206.827 24.6531 206.354 22.7053 206.354C21.0358 206.354 19.7558 206.688 18.8654 207.356C17.975 207.968 17.5298 208.831 17.5298 209.944C17.5298 211.279 18.2255 212.281 19.6167 212.949C21.0636 213.617 23.2896 214.284 26.2948 214.952C29.7451 215.843 32.5554 216.733 34.7258 217.623C36.8961 218.458 38.7882 219.849 40.4021 221.797C42.0716 223.689 42.9342 226.249 42.9898 229.477C42.9898 232.204 42.2107 234.652 40.6525 236.823C39.15 238.938 36.9518 240.607 34.058 241.831C31.2198 243.056 27.9086 243.668 24.1244 243.668ZM97.9824 196.421V243H83.7081V236.656C82.2612 238.715 80.2856 240.384 77.7813 241.664C75.3327 242.889 72.6058 243.501 69.6007 243.501C66.0391 243.501 62.8949 242.722 60.168 241.164C57.4411 239.55 55.3264 237.24 53.8239 234.235C52.3213 231.23 51.57 227.696 51.57 223.634V196.421H65.7609V221.714C65.7609 224.83 66.5678 227.251 68.1817 228.976C69.7955 230.701 71.9659 231.564 74.6927 231.564C77.4752 231.564 79.6734 230.701 81.2873 228.976C82.9011 227.251 83.7081 224.83 83.7081 221.714V196.421H97.9824ZM105.662 219.71C105.662 214.869 106.636 210.639 108.584 207.022C110.587 203.405 113.342 200.622 116.848 198.675C120.409 196.727 124.472 195.753 129.035 195.753C134.878 195.753 139.748 197.283 143.643 200.344C147.594 203.405 150.182 207.718 151.406 213.283H136.214C134.934 209.721 132.458 207.94 128.785 207.94C126.169 207.94 124.082 208.97 122.524 211.029C120.966 213.032 120.187 215.926 120.187 219.71C120.187 223.495 120.966 226.416 122.524 228.475C124.082 230.479 126.169 231.48 128.785 231.48C132.458 231.48 134.934 229.7 136.214 226.138H151.406C150.182 231.592 147.594 235.877 143.643 238.993C139.692 242.11 134.823 243.668 129.035 243.668C124.472 243.668 120.409 242.694 116.848 240.746C113.342 238.798 110.587 236.016 108.584 232.399C106.636 228.781 105.662 224.552 105.662 219.71ZM156.468 219.71C156.468 214.869 157.442 210.639 159.39 207.022C161.393 203.405 164.148 200.622 167.654 198.675C171.216 196.727 175.278 195.753 179.841 195.753C185.685 195.753 190.554 197.283 194.45 200.344C198.401 203.405 200.989 207.718 202.213 213.283H187.02C185.74 209.721 183.264 207.94 179.591 207.94C176.975 207.94 174.889 208.97 173.33 211.029C171.772 213.032 170.993 215.926 170.993 219.71C170.993 223.495 171.772 226.416 173.33 228.475C174.889 230.479 176.975 231.48 179.591 231.48C183.264 231.48 185.74 229.7 187.02 226.138H202.213C200.989 231.592 198.401 235.877 194.45 238.993C190.498 242.11 185.629 243.668 179.841 243.668C175.278 243.668 171.216 242.694 167.654 240.746C164.148 238.798 161.393 236.016 159.39 232.399C157.442 228.781 156.468 224.552 156.468 219.71ZM254.021 218.959C254.021 220.295 253.937 221.686 253.771 223.133H221.466C221.688 226.027 222.606 228.253 224.22 229.811C225.89 231.313 227.921 232.065 230.314 232.065C233.876 232.065 236.352 230.562 237.743 227.557H252.936C252.157 230.618 250.738 233.373 248.679 235.821C246.675 238.27 244.143 240.19 241.082 241.581C238.021 242.972 234.599 243.668 230.815 243.668C226.251 243.668 222.189 242.694 218.627 240.746C215.066 238.798 212.283 236.016 210.28 232.399C208.276 228.781 207.275 224.552 207.275 219.71C207.275 214.869 208.249 210.639 210.196 207.022C212.2 203.405 214.982 200.622 218.544 198.675C222.106 196.727 226.196 195.753 230.815 195.753C235.322 195.753 239.329 196.699 242.835 198.591C246.341 200.483 249.068 203.182 251.016 206.688C253.019 210.194 254.021 214.284 254.021 218.959ZM239.413 215.203C239.413 212.754 238.578 210.806 236.908 209.359C235.239 207.913 233.152 207.189 230.648 207.189C228.255 207.189 226.224 207.885 224.554 209.276C222.94 210.667 221.939 212.643 221.549 215.203H239.413ZM305.724 218.959C305.724 220.295 305.641 221.686 305.474 223.133H273.169C273.391 226.027 274.309 228.253 275.923 229.811C277.593 231.313 279.624 232.065 282.017 232.065C285.579 232.065 288.055 230.562 289.446 227.557H304.639C303.86 230.618 302.441 233.373 300.382 235.821C298.378 238.27 295.846 240.19 292.785 241.581C289.725 242.972 286.302 243.668 282.518 243.668C277.955 243.668 273.892 242.694 270.33 240.746C266.769 238.798 263.986 236.016 261.983 232.399C259.98 228.781 258.978 224.552 258.978 219.71C258.978 214.869 259.952 210.639 261.899 207.022C263.903 203.405 266.685 200.622 270.247 198.675C273.809 196.727 277.899 195.753 282.518 195.753C287.026 195.753 291.032 196.699 294.538 198.591C298.044 200.483 300.771 203.182 302.719 206.688C304.722 210.194 305.724 214.284 305.724 218.959ZM291.116 215.203C291.116 212.754 290.281 210.806 288.612 209.359C286.942 207.913 284.855 207.189 282.351 207.189C279.958 207.189 277.927 207.885 276.257 209.276C274.643 210.667 273.642 212.643 273.252 215.203H291.116ZM310.681 219.627C310.681 214.841 311.571 210.639 313.352 207.022C315.189 203.405 317.665 200.622 320.781 198.675C323.898 196.727 327.376 195.753 331.216 195.753C334.277 195.753 337.059 196.393 339.563 197.673C342.123 198.953 344.127 200.678 345.574 202.848V181.228H359.848V243H345.574V236.322C344.238 238.548 342.318 240.329 339.814 241.664C337.365 243 334.499 243.668 331.216 243.668C327.376 243.668 323.898 242.694 320.781 240.746C317.665 238.743 315.189 235.932 313.352 232.315C311.571 228.642 310.681 224.413 310.681 219.627ZM345.574 219.71C345.574 216.149 344.572 213.338 342.569 211.279C340.621 209.22 338.228 208.191 335.39 208.191C332.551 208.191 330.131 209.22 328.127 211.279C326.18 213.283 325.206 216.065 325.206 219.627C325.206 223.189 326.18 226.027 328.127 228.141C330.131 230.2 332.551 231.23 335.39 231.23C338.228 231.23 340.621 230.2 342.569 228.141C344.572 226.082 345.574 223.272 345.574 219.71Z" fill="#05B851"/>
</svg>
