<svg width="25" height="20" viewBox="0 0 25 20" fill="none" xmlns="http://www.w3.org/2000/svg">
<path d="M22.0901 4.98204C22.0998 5.19854 22.1045 5.41604 22.1045 5.63455C22.1045 12.3062 17.0261 19.9997 7.73907 20C4.88773 20 2.23442 19.1642 0 17.732C0.395059 17.7787 0.797167 17.8018 1.20431 17.8018C3.56997 17.8018 5.74699 16.9949 7.47525 15.6406C5.265 15.5996 3.40147 14.1399 2.75837 12.1337C3.06616 12.1928 3.38267 12.225 3.70725 12.225C4.16809 12.225 4.61451 12.1629 5.03877 12.0471C2.72849 11.5846 0.988152 9.54285 0.988152 7.09798C0.988152 7.07515 0.988152 7.05468 0.988823 7.03353C1.66918 7.41181 2.44722 7.63938 3.2756 7.66489C1.91991 6.76031 1.02877 5.21398 1.02877 3.46222C1.02877 2.53717 1.27882 1.67053 1.71248 0.924378C4.20233 3.97946 7.92334 5.98866 12.1196 6.19978C12.033 5.82989 11.9884 5.44457 11.9884 5.0485C11.9884 2.26127 14.2497 0 17.0379 0C18.4902 0 19.802 0.613903 20.7233 1.59534C21.8736 1.36844 22.9537 0.948209 23.9294 0.369886C23.5518 1.54835 22.7517 2.53717 21.7091 3.16249C22.7305 3.04031 23.7039 2.76944 24.6085 2.36733C23.9328 3.37999 23.0759 4.26946 22.0901 4.98204Z" fill="white"/>
</svg>
