<svg width="29" height="20" viewBox="0 0 29 20" fill="none" xmlns="http://www.w3.org/2000/svg">
<path d="M27.9763 3.12949C27.647 1.90581 26.6822 0.941246 25.4587 0.611733C23.2234 0 14.2821 0 14.2821 0C14.2821 0 5.34106 0 3.10574 0.588415C1.90581 0.917709 0.917491 1.90603 0.588197 3.12949C0 5.3646 0 10 0 10C0 10 0 14.6587 0.588197 16.8705C0.917709 18.094 1.88227 19.0588 3.10596 19.3883C5.3646 20 14.2824 20 14.2824 20C14.2824 20 23.2234 20 25.4587 19.4116C26.6824 19.0823 27.647 18.1175 27.9765 16.894C28.5647 14.6587 28.5647 10.0235 28.5647 10.0235C28.5647 10.0235 28.5882 5.3646 27.9763 3.12949Z" fill="white"/>
<path d="M11.4353 14.2824L18.8705 10L11.4353 5.71765V14.2824Z" fill="#011945"/>
</svg>
